<?xml version="1.0" encoding="UTF-8" standalone="no"?>
<!-- Created with Inkscape (http://www.inkscape.org/) -->

<svg
   width="125.16957mm"
   height="130.72444mm"
   viewBox="0 0 125.16957 130.72444"
   version="1.1"
   id="svg5"
   sodipodi:docname="cashtron.svg"
   inkscape:version="1.1 (c68e22c387, 2021-05-23)"
   xmlns:inkscape="http://www.inkscape.org/namespaces/inkscape"
   xmlns:sodipodi="http://sodipodi.sourceforge.net/DTD/sodipodi-0.dtd"
   xmlns="http://www.w3.org/2000/svg"
   xmlns:svg="http://www.w3.org/2000/svg">
  <sodipodi:namedview
     id="namedview7"
     pagecolor="#ffffff"
     bordercolor="#666666"
     borderopacity="1.0"
     inkscape:pageshadow="2"
     inkscape:pageopacity="0.0"
     inkscape:pagecheckerboard="0"
     inkscape:document-units="mm"
     showgrid="false"
     inkscape:zoom="0.90384068"
     inkscape:cx="185.87347"
     inkscape:cy="255.02282"
     inkscape:window-width="1920"
     inkscape:window-height="991"
     inkscape:window-x="-9"
     inkscape:window-y="1341"
     inkscape:window-maximized="1"
     inkscape:current-layer="layer1" />
  <defs
     id="defs2" />
  <g
     inkscape:label="Camada 1"
     inkscape:groupmode="layer"
     id="layer1"
     transform="translate(75.552177,0.94421989)">
    <rect
       style="fill:#171923;fill-opacity:1;stroke-width:0.264583"
       id="rect503"
       width="125.16957"
       height="130.72444"
       x="-75.552177"
       y="-0.94421989"
       inkscape:export-filename="C:\Users\kalua\rect503.png"
       inkscape:export-xdpi="96"
       inkscape:export-ydpi="96" />
    <path
       id="rect7687"
       style="fill:#ffffff;fill-opacity:1;stroke-width:0.512126"
       d="m 4.1892146,18.644843 c -0.055608,4e-4 -0.1207363,0.0251 -0.1980676,0.07922 -0.077339,0.05413 -0.1674079,0.137734 -0.272898,0.255289 -0.1054783,0.117555 -0.2263723,0.268743 -0.3664273,0.45941 C 3.2117698,19.629427 3.0525429,19.859087 2.871507,20.132553 2.5094321,20.679484 2.0594429,21.402 1.4949278,22.338271 0.93041365,23.274539 0.25166305,24.425013 -0.56663905,25.828133 L -4.753045,33.006479 h -8.241315 -8.241312 L -24.837778,26.7387 c -1.981049,-3.447279 -3.854086,-6.692743 -4.162749,-7.212456 -0.132095,-0.222429 -0.237638,-0.392105 -0.338367,-0.518832 -0.05036,-0.06337 -0.09944,-0.116403 -0.150206,-0.159556 -0.05079,-0.04315 -0.103275,-0.07637 -0.160097,-0.101784 -0.05685,-0.02541 -0.118201,-0.04266 -0.186522,-0.05282 -0.06835,-0.01011 -0.143509,-0.01364 -0.228876,-0.011 -0.170732,0.0052 -0.381508,0.03381 -0.653631,0.07538 -0.559758,0.08549 -1.123275,0.200577 -1.685237,0.342217 -0.561962,0.141644 -1.122221,0.309713 -1.675878,0.501775 -0.553647,0.192065 -1.100342,0.408073 -1.635165,0.644826 -0.534834,0.23675 -1.057605,0.49456 -1.563096,0.770267 -0.505502,0.275709 -0.994001,0.569173 -1.459662,0.878105 -0.465661,0.308933 -0.908443,0.633015 -1.323755,0.969439 -0.415312,0.336412 -0.803156,0.685528 -1.1576,1.043711 -0.177228,0.179091 -0.34614,0.360133 -0.506184,0.543588 -0.160032,0.183456 -0.31126,0.369141 -0.4528,0.556244 l -1.288556,1.703944 -0.345512,4.626558 c -0.18995,2.544469 -0.460955,5.893645 -0.601909,7.442987 -0.140943,1.54933 -0.33644,4.057056 -0.434657,5.572337 l -0.178814,2.754809 -1.506423,1.188963 c -0.295983,0.233518 -0.538348,0.435161 -0.735602,0.616763 -0.197254,0.181605 -0.349376,0.343108 -0.464916,0.495174 -0.115529,0.152067 -0.194571,0.294696 -0.245378,0.439601 -0.05078,0.144909 -0.07336,0.292135 -0.07644,0.452258 -0.0021,0.112079 0.05228,0.539845 0.152399,1.217022 0.10008,0.677188 0.245835,1.603388 0.426395,2.711895 0.36112,2.217011 0.861182,5.162799 1.413444,8.302385 l 2.008199,11.417011 2.45,2.331164 c 0.360417,0.342995 0.716193,0.697878 1.066272,1.063522 0.350079,0.365644 0.694526,0.742274 1.032712,1.128454 0.338187,0.38618 0.670007,0.782162 0.994746,1.186765 0.324729,0.404602 0.642101,0.817544 0.951829,1.238457 0.309727,0.420941 0.611896,0.849601 0.905067,1.284711 0.293172,0.435112 0.577741,0.87656 0.852792,1.323755 0.275061,0.447196 0.540743,0.900166 0.796129,1.357334 0.255386,0.457168 0.500349,0.918701 0.734505,1.383728 l 1.347412,2.676131 3.887655,2.619452 3.887102,2.620017 1.426646,-2.685483 1.426103,-2.685483 9.060545,-0.0044 v -5.63e-4 l 9.0605492,-0.0044 1.4415028,2.674469 1.4420511,2.674496 0.96228265,-0.632186 C 0.19970825,93.151722 1.94907,91.987691 3.5581819,90.91245 l 2.925365,-1.954815 1.3309129,-2.609566 c 0.238193,-0.467026 0.485149,-0.927602 0.741108,-1.382065 0.255959,-0.454492 0.521018,-0.902589 0.794476,-1.344123 0.273461,-0.441561 0.5555,-0.876784 0.8461952,-1.305049 0.290696,-0.428266 0.590247,-0.849714 0.897912,-1.264346 0.307665,-0.414631 0.623609,-0.822445 0.947979,-1.223076 0.324372,-0.40063 0.656688,-0.79388 0.997498,-1.180173 0.340809,-0.386264 0.690027,-0.765683 1.047015,-1.137243 0.356984,-0.371559 0.721986,-0.735626 1.094878,-1.092115 l 2.594703,-2.480266 1.040411,-5.747855 c 0.572408,-3.161296 1.465458,-8.029596 1.983991,-10.818411 0.518533,-2.788805 1.02729,-5.651284 1.131195,-6.361312 l 0.189264,-1.291298 -1.503673,-1.23078 c -0.82711,-0.676887 -1.53733,-1.248677 -1.577948,-1.270939 -0.02033,-0.01113 -0.08536,-0.715204 -0.173861,-1.840942 -0.08851,-1.125737 -0.200724,-2.67329 -0.31471,-4.370168 -0.188456,-2.80552 -0.347198,-5.084879 -0.486368,-6.939565 -0.139171,-1.854685 -0.258571,-3.284381 -0.368627,-4.391077 -0.110057,-1.106694 -0.210297,-1.890102 -0.311409,-2.45165 -0.05056,-0.280777 -0.101411,-0.506319 -0.153503,-0.688842 -0.05211,-0.18252 -0.105585,-0.322274 -0.161757,-0.431899 -0.10173,-0.19854 -0.238291,-0.414037 -0.403842,-0.641522 -0.16555,-0.227488 -0.360491,-0.466776 -0.577701,-0.712499 -0.217205,-0.245722 -0.4569,-0.49831 -0.713596,-0.751561 C 15.11739,23.746044 14.84383,23.491746 14.559805,23.24168 14.275776,22.991689 13.981436,22.746175 13.682247,22.51 13.383059,22.273828 13.079369,22.047038 12.777182,21.835466 12.474997,21.623897 12.17394,21.427421 11.880921,21.251162 11.587901,21.074907 11.302565,20.919235 11.030875,20.789003 10.514715,20.541579 9.8955258,20.283329 9.2405528,20.035241 8.5855788,19.78715 7.8947198,19.549259 7.2351053,19.342549 6.5754892,19.135838 5.9473483,18.960209 5.4172746,18.836924 5.1522308,18.775279 4.911728,18.726777 4.7042241,18.693875 4.4967308,18.660976 4.3224355,18.643813 4.1892466,18.64491 Z m 8.3706094,36.38085 c 0.0208,3.29e-4 0.04017,0.0027 0.05777,0.0077 0.0352,0.01001 0.0644,0.03047 0.08749,0.06382 0.02307,0.03336 0.04016,0.07984 0.05227,0.1425 0.02422,0.125319 0.0275,0.315068 0.01485,0.593656 -0.01265,0.278591 -0.04119,0.64577 -0.08143,1.125693 -0.0361,0.430586 -0.07251,0.781921 -0.117192,1.077275 -0.04467,0.295352 -0.09784,0.535152 -0.166705,0.742206 -0.06887,0.207057 -0.15377,0.3812 -0.262444,0.546891 -0.108671,0.165692 -0.240852,0.322803 -0.404941,0.494074 -0.115893,0.120958 -0.215141,0.226037 -0.310856,0.319109 -0.09572,0.09307 -0.187814,0.173957 -0.28885,0.245934 -0.101039,0.07198 -0.211468,0.135435 -0.34332,0.193118 -0.131851,0.05768 -0.285002,0.109916 -0.473165,0.160106 -0.3763262,0.100379 -0.8910752,0.19249 -1.6456232,0.303707 -0.754546,0.111214 -1.7492884,0.241136 -3.0860209,0.417595 -1.3379781,0.176622 -2.4040835,0.30916 -3.2648367,0.397788 -0.4303755,0.04431 -0.8096707,0.07778 -1.1454968,0.100134 -0.33582935,0.02236 -0.62857735,0.03369 -0.88635995,0.03411 -0.2577816,4.26e-4 -0.4804945,-0.0099 -0.6767341,-0.03137 -0.1962435,-0.0215 -0.3659842,-0.05405 -0.5171854,-0.09742 -0.15120135,-0.04335 -0.28392605,-0.09765 -0.40659155,-0.162859 -0.1226656,-0.0652 -0.2348855,-0.141299 -0.3455191,-0.228327 -0.09612,-0.07561 -0.2042173,-0.187459 -0.3174625,-0.324615 -0.1132346,-0.137156 -0.2319416,-0.29971 -0.3482691,-0.477016 -0.1163297,-0.177303 -0.2302457,-0.36899 -0.3356175,-0.565047 -0.1053719,-0.196056 -0.2018729,-0.396397 -0.282247,-0.589804 l -0.5848529,-1.406836 1.4569045,-0.291051 c 1.39970965,-0.279873 9.0845111,-1.720233 12.3022792,-2.305852 0.852131,-0.15508 1.791204,-0.353275 2.086325,-0.440153 0.09439,-0.02779 0.171417,-0.0461 0.23383,-0.04511 z m -51.515508,0.05062 c 0.0197,-0.02169 1.030583,0.152708 2.538028,0.42915 1.507445,0.276445 3.511428,0.654626 5.516773,1.039313 2.005334,0.384678 4.012212,0.775886 5.525566,1.078923 1.513365,0.303039 2.53295,0.518153 2.564444,0.549641 0.03034,0.03037 0.0329,0.09906 0.01267,0.197521 -0.02033,0.09846 -0.06345,0.226682 -0.123801,0.374681 -0.120735,0.295986 -0.310963,0.672486 -0.528733,1.055266 -0.217771,0.382779 -0.462904,0.771573 -0.693238,1.09268 -0.115167,0.160546 -0.226544,0.304149 -0.32902,0.421446 -0.102423,0.117296 -0.195881,0.208608 -0.275093,0.264092 -0.100081,0.0701 -0.216696,0.131054 -0.35322,0.182663 -0.136525,0.05161 -0.293076,0.09353 -0.472614,0.126543 -0.179538,0.03301 -0.382147,0.05665 -0.611257,0.07097 -0.22912,0.01432 -0.485007,0.01934 -0.770278,0.01485 -0.570523,-0.0089 -1.259502,-0.05553 -2.094023,-0.140297 -0.834522,-0.08477 -1.814479,-0.207775 -2.965532,-0.36918 -1.196482,-0.16777 -2.118521,-0.300143 -2.840633,-0.417045 -0.722122,-0.116902 -1.243978,-0.21793 -1.640126,-0.323513 -0.198074,-0.05279 -0.36507,-0.106577 -0.509473,-0.163956 -0.144403,-0.05738 -0.266501,-0.118505 -0.375781,-0.185414 -0.10929,-0.06691 -0.205484,-0.139793 -0.298207,-0.221178 -0.09273,-0.08138 -0.182051,-0.17154 -0.276744,-0.272346 -0.127815,-0.136049 -0.235274,-0.275985 -0.327369,-0.434649 -0.0921,-0.158666 -0.168817,-0.335584 -0.233826,-0.54469 -0.06505,-0.209106 -0.118468,-0.450425 -0.165059,-0.737807 -0.04663,-0.28738 -0.08592,-0.621063 -0.122694,-1.014552 -0.104445,-1.116515 -0.172372,-2.049305 -0.150749,-2.073122 z m -3.634569,24.753649 c -0.0231,0.02422 -0.02917,0.158145 -0.02087,0.379081 0.0085,0.220963 0.03088,0.529254 0.06495,0.901771 0.06803,0.745064 0.181891,1.748133 0.318564,2.828529 0.136674,1.080397 0.296504,2.237921 0.456111,3.292345 0.159597,1.054424 0.318735,2.005689 0.455558,2.672834 0.13991,0.682188 0.259048,1.273839 0.376334,1.80298 0.117275,0.529141 0.232825,0.995352 0.366422,1.426631 0.06676,0.215668 0.138037,0.422941 0.216227,0.624468 0.07815,0.201555 0.1636,0.397701 0.258037,0.592017 0.09444,0.194314 0.198042,0.386433 0.313614,0.580466 0.115561,0.194006 0.243025,0.389729 0.384585,0.590354 0.14155,0.200597 0.297441,0.406491 0.469857,0.620609 0.172425,0.21409 0.3613,0.436745 0.569446,0.67123 0.416303,0.46897 0.909188,0.985435 1.497618,1.577396 0.588452,0.59196 1.272491,1.258965 2.072027,2.029097 0.799536,0.77013 1.714579,1.64348 2.764157,2.64697 l 7.451795,7.12442 11.281121,-0.005 11.2805745,-0.005 6.7607506,-6.33653 v -5.7e-4 c 1.8592064,-1.74262 3.6531947,-3.44309 5.0452517,-4.778952 1.3920592,-1.335868 2.3825402,-2.307191 2.6354172,-2.591396 0.09496,-0.106736 0.189056,-0.22595 0.282248,-0.357644 0.09319,-0.131694 0.185492,-0.275895 0.276748,-0.431899 0.182507,-0.312009 0.360498,-0.67185 0.534234,-1.07727 0.173738,-0.405419 0.343119,-0.856502 0.506728,-1.350178 0.163603,-0.493675 0.321597,-1.029775 0.473714,-1.606551 0.152114,-0.576777 0.298138,-1.19392 0.4374,-1.848643 0.139267,-0.654694 0.271637,-1.347277 0.39669,-2.074762 0.125055,-0.727485 0.242638,-1.489844 0.352123,-2.284936 0.109481,-0.795121 0.211152,-1.622693 0.303704,-2.480266 0.09381,-0.86932 0.155626,-1.645314 0.179362,-2.194737 0.01187,-0.274656 0.01385,-0.492662 0.0061,-0.637652 -0.0039,-0.07251 -0.01022,-0.126819 -0.01925,-0.160652 -0.0091,-0.03386 -0.02076,-0.04746 -0.03521,-0.03854 -0.0578,0.03575 -0.308017,0.313418 -0.664083,0.731767 -0.356067,0.41835 -0.818217,0.977295 -1.30065,1.576297 -0.368647,0.457732 -0.729288,0.922899 -1.080027,1.391448 -0.35074,0.46852 -0.69118,0.940589 -1.019505,1.412321 -0.328324,0.471731 -0.644378,0.943378 -0.945779,1.410686 -0.301399,0.467337 -0.588334,0.930618 -0.858299,1.385954 -0.2699622,0.455308 -0.5230452,0.902363 -0.7570632,1.338066 -0.234018,0.435702 -0.44906,0.859714 -0.642624,1.268176 -0.19356,0.40849 -0.365832,0.80157 -0.514428,1.175215 -0.148593,0.373644 -0.273362,0.727907 -0.372478,1.059128 -0.03863,0.129074 -0.08441,0.254909 -0.1419504,0.383475 -0.057567,0.12791 -0.1267945,0.259322 -0.2135046,0.398791 -0.086708,0.139479 -0.1907596,0.287173 -0.3169099,0.448952 -0.1261503,0.161779 -0.2747516,0.337615 -0.4506067,0.533142 -0.3517113,0.391025 -0.8128733,0.860841 -1.424997,1.455251 -0.6121215,0.594411 -1.3748502,1.313304 -2.3295097,2.202427 -1.2408969,1.155666 -2.38648635,2.205952 -3.23237445,2.967182 -0.8458881,0.7612 -1.39238465,1.23316 -1.43489855,1.23243 -0.021262,-2.8e-4 -0.085516,-0.10521 -0.1832132,-0.29491 -0.097695,-0.18973 -0.2286549,-0.4639 -0.384034,-0.80219 -0.310755,-0.67656 -0.7181717,-1.60971 -1.1471472,-2.635401 l -1.5597925,-3.729764 -8.3271446,-0.07425 -8.327149,-0.07485 -1.62802,3.807345 c -0.447743,1.046931 -0.874735,1.99783 -1.201615,2.68658 -0.16344,0.34438 -0.301849,0.62345 -0.405496,0.81591 -0.103594,0.19251 -0.172308,0.29863 -0.196413,0.29767 -0.04823,-0.002 -0.583128,-0.4655 -1.406289,-1.20986 -0.823172,-0.74439 -1.934799,-1.76977 -3.13554,-2.897323 -0.915672,-0.859855 -1.650976,-1.559705 -2.244783,-2.142453 -0.593806,-0.58272 -1.046095,-1.048452 -1.395834,-1.441477 -0.174864,-0.196512 -0.323824,-0.374827 -0.452257,-0.540296 -0.128433,-0.16547 -0.23619,-0.318431 -0.327912,-0.463816 -0.09178,-0.145356 -0.167443,-0.28305 -0.232176,-0.419251 -0.06473,-0.136173 -0.11868,-0.270853 -0.166165,-0.408801 -0.169243,-0.491562 -0.397447,-1.053606 -0.667931,-1.654411 -0.270483,-0.600806 -0.583,-1.240457 -0.92157,-1.887151 -0.33857,-0.646694 -0.703214,-1.300262 -1.076727,-1.929518 -0.373512,-0.629257 -0.755883,-1.234119 -1.131196,-1.782641 -0.361407,-0.528156 -0.815634,-1.155554 -1.295146,-1.798022 -0.479513,-0.642441 -0.984376,-1.299951 -1.4481,-1.88715 -0.463734,-0.5872 -0.886457,-1.104397 -1.200518,-1.466802 -0.15703,-0.181216 -0.286773,-0.32384 -0.381285,-0.417053 -0.09454,-0.09321 -0.153655,-0.13699 -0.168912,-0.121046 z" />
  </g>
</svg>
