<?xml version="1.0" encoding="UTF-8" standalone="no"?>
<!-- Created with Inkscape (http://www.inkscape.org/) -->

<svg
   width="10.583mm"
   height="10.655mm"
   version="1.1"
   viewBox="0 0 10.583 10.655"
   id="svg6"
   sodipodi:docname="comet-blue.svg"
   inkscape:version="1.1 (c68e22c387, 2021-05-23)"
   xmlns:inkscape="http://www.inkscape.org/namespaces/inkscape"
   xmlns:sodipodi="http://sodipodi.sourceforge.net/DTD/sodipodi-0.dtd"
   xmlns="http://www.w3.org/2000/svg"
   xmlns:svg="http://www.w3.org/2000/svg">
  <defs
     id="defs10" />
  <sodipodi:namedview
     id="namedview8"
     pagecolor="#ffffff"
     bordercolor="#666666"
     borderopacity="1.0"
     inkscape:pageshadow="2"
     inkscape:pageopacity="0.0"
     inkscape:pagecheckerboard="0"
     inkscape:document-units="mm"
     showgrid="false"
     inkscape:zoom="4.9787855"
     inkscape:cx="-5.4230093"
     inkscape:cy="2.9123568"
     inkscape:window-width="1920"
     inkscape:window-height="991"
     inkscape:window-x="-9"
     inkscape:window-y="1341"
     inkscape:window-maximized="1"
     inkscape:current-layer="svg6" />
  <path
     d="M 2.871,10.648 C 1.8635,10.57706 0.962,10.02263 0.4348,9.1498 0.19916,8.75967 0.05621,8.3247 0.01111,7.8606 -0.00161,7.72967 -0.00328,7.44416 0.00791,7.31454 c 0.05875,-0.67972 0.33799,-1.3147 0.8,-1.8193 0.54728,-0.5977 1.5486,-1.3172 3.3276,-2.391 C 4.71659,2.7535 5.61881,2.23308 6.17611,1.92714 6.52635,1.73488 7.54851,1.18096 7.55051,1.18235 7.55161,1.18314 7.40179,1.46414 7.21754,1.80679 7.03329,2.14944 6.88372,2.43098 6.88517,2.43243 c 0.0014,0.0014 0.43258,-0.28214 0.95807,-0.6302 0.74408,-0.49284 2.6749,-1.7632 2.7337,-1.7986 0.0092,-0.0056 0.0091,-0.0039 -5.1e-4,0.0112 -0.47747,0.74804 -2.8802,4.5436 -2.8778,4.546 0.0039,0.0039 0.28248,-0.09434 0.7659,-0.27023 0.25884,-0.09418 0.47175,-0.17031 0.47313,-0.16919 0.0033,0.0027 -0.67754,1.2319 -0.84147,1.5191 -0.97144,1.7017 -1.9014,3.0784 -2.6163,3.8728 -0.12603,0.14005 -0.30663,0.32044 -0.40275,0.40226 -0.6157,0.5241 -1.4119,0.78846 -2.2062,0.73252 z M 3.34881,9.7827 C 3.59864,9.74922 3.81038,9.68484 4.03498,9.57409 4.37859,9.40465 4.61122,9.20574 4.9759,8.76956 5.43796,8.21691 6.0901,7.27456 6.6846,6.30066 6.8192,6.08015 7.02151,5.7326 7.01757,5.72866 7.01567,5.72676 6.97106,5.74049 6.91844,5.75917 6.86582,5.77785 6.55148,5.88977 6.21992,6.00788 5.88836,6.12599 5.61646,6.22177 5.61572,6.22073 5.614976,6.21973 5.75353,6.0022 5.92362,5.73743 6.25658,5.21914 7.67382,2.97273 7.67042,2.96883 7.66922,2.96753 7.34066,3.18402 6.94019,3.44991 c -1.9416,1.2892 -2.488,1.651 -2.4901,1.6488 -0.0031,-0.0031 0.79782,-1.487 0.86096,-1.5951 0.02744,-0.047 0.04887,-0.08648 0.04762,-0.08773 -0.0033,-0.0033 -0.5035,0.27563 -0.6519,0.36348 -0.87313,0.51692 -1.8399,1.1537 -2.4535,1.616 C 1.96845,5.60996 1.79505,5.75306 1.616,5.92131 1.56593,5.96836 1.52206,6.00685 1.51851,6.00685 c -0.0036,0 -0.0324,0.02829 -0.0641,0.06287 -0.33586,0.36637 -0.53376,0.79131 -0.58806,1.2627 -0.01402,0.12174 -0.01397,0.36066 1.09e-4,0.48103 0.07101,0.60704 0.39144,1.1577 0.89445,1.5372 0.34023,0.25669 0.71334,0.40116 1.1424,0.44237 0.09322,0.009 0.34477,0.0031 0.44547,-0.01044 z"
     fill="#ffffff"
     stroke-width="0.0071851"
     id="path2"
     style="fill:#1c30e3;fill-opacity:1" />
</svg>
