<?xml version="1.0" encoding="UTF-8" standalone="no"?>
<!-- Created with Inkscape (http://www.inkscape.org/) -->

<svg
   width="51.582458mm"
   height="8.2020836mm"
   viewBox="0 0 51.582459 8.2020835"
   version="1.1"
   id="svg5"
   inkscape:version="1.1 (c68e22c387, 2021-05-23)"
   sodipodi:docname="comet-text.svg"
   xmlns:inkscape="http://www.inkscape.org/namespaces/inkscape"
   xmlns:sodipodi="http://sodipodi.sourceforge.net/DTD/sodipodi-0.dtd"
   xmlns="http://www.w3.org/2000/svg"
   xmlns:svg="http://www.w3.org/2000/svg">
  <sodipodi:namedview
     id="namedview7"
     pagecolor="#ffffff"
     bordercolor="#666666"
     borderopacity="1.0"
     inkscape:pageshadow="2"
     inkscape:pageopacity="0.0"
     inkscape:pagecheckerboard="0"
     inkscape:document-units="mm"
     showgrid="false"
     inkscape:zoom="1.4289282"
     inkscape:cx="62.984272"
     inkscape:cy="86.428417"
     inkscape:window-width="1920"
     inkscape:window-height="991"
     inkscape:window-x="-9"
     inkscape:window-y="-9"
     inkscape:window-maximized="1"
     inkscape:current-layer="layer1" />
  <defs
     id="defs2" />
  <g
     inkscape:label="Camada 1"
     inkscape:groupmode="layer"
     id="layer1"
     transform="translate(-87.399451,-139.97668)">
    <g
       aria-label="Comet"
       id="text1442"
       style="font-size:10.5833px;line-height:1.25;fill:#333333;fill-opacity:1;stroke-width:0.264583"
       transform="matrix(2.2076881,0,0,2.2076881,-105.55127,-191.92812)">
      <path
         d="m 87.841006,154.05486 q -0.248708,0.0106 -0.370416,-0.11642 -0.116416,-0.127 -0.04233,-0.37042 l 0.740831,-2.68286 q 0.07937,-0.22225 0.238124,-0.34396 0.164042,-0.127 0.402166,-0.13229 h 3.645946 l -0.211666,0.74612 H 88.39134 l 1.269996,0.16933 -0.550331,1.97908 h 2.550575 l -0.206374,0.75142 z"
         style="font-family:'Best In Class 3';-inkscape-font-specification:'Best In Class 3, ';fill:#333333;fill-opacity:1"
         id="path7048" />
      <path
         d="m 96.260003,151.15503 q 0.195791,0.0159 0.280457,0.14817 0.08467,0.127 0.05292,0.3122 l -0.51329,1.85737 q -0.105833,0.27517 -0.285749,0.42334 -0.174625,0.14816 -0.481541,0.15875 h -2.852199 q -0.100541,-0.005 -0.169333,-0.0476 -0.0635,-0.0423 -0.100541,-0.10583 -0.03704,-0.0635 -0.04762,-0.14288 -0.0053,-0.0847 0.0053,-0.17462 l 0.555623,-2.02141 q 0.08996,-0.20108 0.232833,-0.29104 0.148166,-0.09 0.365124,-0.11642 z m -1.746245,2.14841 0.391582,-1.39699 h -0.682622 l -0.391583,1.39699 z"
         style="font-family:'Best In Class 3';-inkscape-font-specification:'Best In Class 3, ';fill:#333333;fill-opacity:1"
         id="path7050" />
      <path
         d="m 96.392275,154.05486 0.809622,-2.89983 h 5.746733 q 0.20637,0.0212 0.26987,0.15875 0.0635,0.13229 0.0476,0.3175 l -0.67733,2.42358 h -1.60866 l 0.59795,-2.14841 h -0.68262 l -0.59796,2.14841 h -1.608659 l 0.597956,-2.14841 h -0.682623 l -0.597956,2.14841 z"
         style="font-family:'Best In Class 3';-inkscape-font-specification:'Best In Class 3, ';fill:#333333;fill-opacity:1"
         id="path7052" />
      <path
         d="m 105.85374,151.90645 h -0.68263 l -0.127,0.46566 h 0.67734 z m -2.43416,2.14841 q -0.18521,-0.0106 -0.27517,-0.13759 -0.0847,-0.127 -0.0582,-0.30162 l 0.56621,-2.04258 q 0.09,-0.22225 0.26987,-0.3175 0.17992,-0.10054 0.40217,-0.10054 h 3.34961 l -0.21166,0.75671 -0.26458,0.97895 h -2.30187 l -0.11113,0.41275 h 2.29129 l -0.20638,0.75142 z"
         style="font-family:'Best In Class 3';-inkscape-font-specification:'Best In Class 3, ';fill:#333333;fill-opacity:1"
         id="path7054" />
      <path
         d="m 109.35679,153.28757 h 1.40758 l -0.21696,0.76729 h -2.29658 q -0.13758,0 -0.25399,-0.005 -0.11642,-0.005 -0.20109,-0.0476 -0.0794,-0.0423 -0.11641,-0.13758 -0.037,-0.10055 -0.0212,-0.28575 l 0.45508,-1.67216 h -0.37041 l 0.20108,-0.75142 h 0.381 l 0.22754,-0.81491 h 1.60866 l -0.22754,0.81491 0.59266,-0.005 -0.20108,0.75671 h -0.59796 z"
         style="font-family:'Best In Class 3';-inkscape-font-specification:'Best In Class 3, ';fill:#333333;fill-opacity:1"
         id="path7056" />
    </g>
  </g>
</svg>
