<?xml version="1.0" encoding="UTF-8" standalone="no"?>
<!-- Created with Inkscape (http://www.inkscape.org/) -->

<svg
   width="38.754242mm"
   height="10.654769mm"
   version="1.1"
   viewBox="0 0 38.754241 10.654769"
   id="svg6"
   sodipodi:docname="comet-full.svg"
   inkscape:version="1.1 (c68e22c387, 2021-05-23)"
   xmlns:inkscape="http://www.inkscape.org/namespaces/inkscape"
   xmlns:sodipodi="http://sodipodi.sourceforge.net/DTD/sodipodi-0.dtd"
   xmlns="http://www.w3.org/2000/svg"
   xmlns:svg="http://www.w3.org/2000/svg">
  <defs
     id="defs10" />
  <sodipodi:namedview
     id="namedview8"
     pagecolor="#ffffff"
     bordercolor="#666666"
     borderopacity="1.0"
     inkscape:pageshadow="2"
     inkscape:pageopacity="0.0"
     inkscape:pagecheckerboard="0"
     inkscape:document-units="mm"
     showgrid="false"
     inkscape:zoom="4.9787855"
     inkscape:cx="46.898988"
     inkscape:cy="2.5106524"
     inkscape:window-width="1920"
     inkscape:window-height="991"
     inkscape:window-x="-9"
     inkscape:window-y="1341"
     inkscape:window-maximized="1"
     inkscape:current-layer="svg6" />
  <path
     d="m 2.870549,10.647311 c -1.0075,-0.07094 -1.90899999,-0.62537 -2.43619999,-1.4982 -0.23564,-0.39013 -0.37859,-0.8251 -0.42369,-1.2892 -0.01272,-0.13093 -0.01439,-0.41644 -0.0032,-0.54606 0.05875,-0.67972 0.33799,-1.3147 0.8,-1.8193 0.54727999,-0.5977 1.54859999,-1.3172 3.32759999,-2.391 0.58108,-0.35074 1.4833,-0.87116 2.0406,-1.1771 0.35024,-0.19226 1.3724,-0.74618 1.3744,-0.74479 0.0011,7.9e-4 -0.14872,0.28179 -0.33297,0.62444 -0.18425,0.34265 -0.33382,0.62419 -0.33237,0.62564 0.0014,0.0014 0.43258,-0.28214 0.95807,-0.6302 0.74408,-0.49284 2.6749,-1.76320001 2.7337,-1.79860001 0.0092,-0.0056 0.0091,-0.003900002 -5.1e-4,0.0112 -0.47747,0.74804 -2.8802,4.54360001 -2.8778,4.54600001 0.0039,0.0039 0.28248,-0.09434 0.7659,-0.27023 0.25884,-0.09418 0.47175,-0.17031 0.47313,-0.16919 0.0033,0.0027 -0.67754,1.2319 -0.84147,1.5191 -0.97144,1.7017 -1.9014,3.0784 -2.6163,3.8728 -0.12603,0.14005 -0.30663,0.32044 -0.40275,0.40226 -0.6157,0.5241 -1.4119,0.78846 -2.2062,0.73252 z m 0.47781,-0.8653 c 0.24983,-0.03348 0.46157,-0.09786 0.68617,-0.20861 0.34361,-0.16944 0.57624,-0.36835 0.94092,-0.80453 0.46206,-0.55265 1.1142,-1.495 1.7087,-2.4689 0.1346,-0.22051 0.33691,-0.56806 0.33297,-0.572 -0.0019,-0.0019 -0.04651,0.01183 -0.09913,0.03051 -0.05262,0.01868 -0.36696,0.1306 -0.69852,0.24871 -0.33156,0.11811 -0.60346,0.21389 -0.6042,0.21285 -7.44e-4,-0.001 0.13781,-0.21853 0.3079,-0.4833 0.33296,-0.51829 1.7502,-2.7647 1.7468,-2.7686 -0.0012,-0.0013 -0.32976,0.21519 -0.73023,0.48108 -1.9416,1.2892 -2.488,1.651 -2.4901,1.6488 -0.0031,-0.0031 0.79782,-1.487 0.86096,-1.5951 0.02744,-0.047 0.04887,-0.08648 0.04762,-0.08773 -0.0033,-0.0033 -0.5035,0.27563 -0.6519,0.36348 -0.87313,0.51692 -1.8399,1.1537 -2.4535,1.616 -0.28482,0.2146 -0.45822,0.3577 -0.63727,0.52595 -0.05007,0.04705 -0.09394,0.08554 -0.09749,0.08554 -0.0036,0 -0.0324,0.02829 -0.0641,0.06287 -0.33586,0.36637 -0.53375999,0.79131 -0.58805999,1.2627 -0.01402,0.12174 -0.01397,0.36066 1.09e-4,0.48103 0.07101,0.60704 0.39143999,1.1577 0.89444999,1.5372 0.34023,0.25669 0.71334,0.40116 1.1424,0.44237 0.09322,0.009 0.34477,0.0031 0.44547,-0.01044 z"
     fill="#ffffff"
     stroke-width="0.0071851"
     id="path2"
     style="fill:#1c30e3;fill-opacity:1" />
  <g
     aria-label="Comet"
     id="text1571"
     style="font-size:10.5833px;line-height:1.25;stroke-width:0.264583;fill:#2d3748;fill-opacity:1"
     transform="matrix(0.72673085,0,0,0.72673085,25.326848,14.271908)">
    <path
       d="m -13.643831,-8.4185275 c 1.968493,0 3.481905,-1.3229125 3.7676542,-3.2702395 h -2.0849102 c -0.211666,0.825497 -0.857247,1.365246 -1.682744,1.365246 -1.047747,0 -1.820328,-0.836081 -1.820328,-1.979077 0,-1.142997 0.772581,-1.989661 1.820328,-1.989661 0.783164,0 1.418162,0.497415 1.672161,1.24883 h 2.0743266 c -0.3069156,-1.873244 -1.8097446,-3.153824 -3.7464876,-3.153824 -2.254243,0 -3.936988,1.672162 -3.936988,3.894655 0,2.211909 1.682745,3.8840705 3.936988,3.8840705 z"
       style="font-family:Mont;-inkscape-font-specification:Mont;fill:#2d3748;fill-opacity:1"
       id="path5655" />
    <path
       d="m -6.1297048,-8.4185275 c 1.8626607,0 3.2067398,-1.2805793 3.2067398,-3.0479905 0,-1.767411 -1.3440791,-3.037407 -3.2067398,-3.037407 -1.8626608,0 -3.1961565,1.269996 -3.1961565,3.037407 0,1.7674112 1.3334957,3.0479905 3.1961565,3.0479905 z m 0,-1.7674115 c -0.7090811,0 -1.2276628,-0.518581 -1.2276628,-1.269996 0,-0.761997 0.5185817,-1.280579 1.2276628,-1.280579 0.7196643,0 1.238246,0.529165 1.238246,1.280579 0,0.751415 -0.5185817,1.269996 -1.238246,1.269996 z"
       style="font-family:Mont;-inkscape-font-specification:Mont;fill:#2d3748;fill-opacity:1"
       id="path5657" />
    <path
       d="m 4.7181754,-14.482758 c -0.7090811,0 -1.3440791,0.317499 -1.7568278,0.83608 -0.3598322,-0.529165 -0.9419137,-0.83608 -1.6404114,-0.83608 -0.65616461,0 -1.25941269,0.296332 -1.67216138,0.783164 l -0.27516579,-0.624415 H -2.0128032 v 5.7149821 h 1.96849371 v -3.1326571 c 0,-0.709081 0.29633239,-1.090079 0.82549738,-1.090079 0.41274871,0 0.63499801,0.306915 0.63499801,0.888997 v 3.3337391 h 1.9155772 v -3.1326571 c 0,-0.719664 0.2751658,-1.090079 0.8149141,-1.090079 0.423332,0 0.6349979,0.285749 0.6349979,0.888997 v 3.3337391 h 1.9684938 v -3.5771551 c 0,-1.344079 -0.8043308,-2.296576 -2.0319935,-2.296576 z"
       style="font-family:Mont;-inkscape-font-specification:Mont;fill:#2d3748;fill-opacity:1"
       id="path5659" />
    <path
       d="m 13.809221,-11.519434 c 0,-1.672162 -1.269996,-2.984491 -3.11149,-2.984491 -1.7991608,0 -3.1009067,1.291163 -3.1009067,3.037407 0,1.7462446 1.3123292,3.0479905 3.1009067,3.0479905 1.428746,0 2.592909,-0.8149141 2.995074,-2.1166595 h -1.968494 c -0.179916,0.338665 -0.571498,0.5397478 -1.02658,0.5397478 -0.624415,0 -1.0371633,-0.3386658 -1.1641629,-0.9948298 h 4.2439029 c 0.02117,-0.179916 0.03175,-0.349249 0.03175,-0.529165 z m -3.11149,-1.439329 c 0.592665,0 1.005414,0.306916 1.174746,0.878414 H 9.565318 c 0.1587495,-0.571498 0.560915,-0.878414 1.132413,-0.878414 z"
       style="font-family:Mont;-inkscape-font-specification:Mont;fill:#2d3748;fill-opacity:1"
       id="path5661" />
    <path
       d="m 17.725017,-10.323521 c -0.412749,0 -0.666748,-0.254 -0.666748,-0.656165 v -1.820328 h 1.386412 v -1.523995 h -1.428745 v -1.661578 h -0.412749 l -2.561158,2.719908 v 0.465665 h 1.047746 v 2.14841 c 0,1.2699962 0.772581,2.0425771 2.031994,2.0425771 h 1.354662 v -1.7144941 z"
       style="font-family:Mont;-inkscape-font-specification:Mont;fill:#2d3748;fill-opacity:1"
       id="path5663" />
  </g>
</svg>
