<?xml version="1.0" encoding="UTF-8" standalone="no"?>
<!-- Created with Inkscape (http://www.inkscape.org/) -->

<svg
   width="47.964527mm"
   height="10.655996mm"
   version="1.1"
   viewBox="0 0 47.964525 10.655996"
   id="svg6"
   sodipodi:docname="comet-full.svg"
   inkscape:version="1.1 (c68e22c387, 2021-05-23)"
   xmlns:inkscape="http://www.inkscape.org/namespaces/inkscape"
   xmlns:sodipodi="http://sodipodi.sourceforge.net/DTD/sodipodi-0.dtd"
   xmlns="http://www.w3.org/2000/svg"
   xmlns:svg="http://www.w3.org/2000/svg">
  <defs
     id="defs10" />
  <sodipodi:namedview
     id="namedview8"
     pagecolor="#ffffff"
     bordercolor="#666666"
     borderopacity="1.0"
     inkscape:pageshadow="2"
     inkscape:pageopacity="0.0"
     inkscape:pagecheckerboard="0"
     inkscape:document-units="mm"
     showgrid="false"
     inkscape:zoom="4.9787855"
     inkscape:cx="96.208202"
     inkscape:cy="-4.5191744"
     inkscape:window-width="1920"
     inkscape:window-height="991"
     inkscape:window-x="-9"
     inkscape:window-y="1341"
     inkscape:window-maximized="1"
     inkscape:current-layer="svg6" />
  <path
     d="M 13.07365,4.1599005 V 2.9910794 h -2.978824 v 4.6752828 h 1.302401 V 6.0300131 h 1.502769 V 4.9012666 H 11.397227 V 4.1599005 Z"
     style="font-size:8.12502px;line-height:1.25;font-family:Mont;-inkscape-font-specification:Mont;fill:#2d3748;stroke-width:0.166975"
     id="path111" />
  <path
     d="m 16.039092,7.7865843 c 1.502769,0 2.571406,-1.021884 2.571406,-2.4511845 0,-1.4359795 -1.068637,-2.4578627 -2.571406,-2.4578627 -1.502769,0 -2.571406,1.0285622 -2.571406,2.4578627 0,1.4226215 1.068636,2.4511845 2.571406,2.4511845 z m 0,-1.195537 c -0.707971,0 -1.235611,-0.5343183 -1.235611,-1.2556475 0,-0.7280082 0.52764,-1.2623266 1.235611,-1.2623266 0.71465,0 1.228932,0.5276394 1.228932,1.2623266 0,0.7280081 -0.514282,1.2556475 -1.228932,1.2556475 z"
     style="font-size:8.12502px;line-height:1.25;font-family:Mont;-inkscape-font-specification:Mont;fill:#2d3748;stroke-width:0.166975"
     id="path113" />
  <path
     d="m 21.595992,7.7865843 c 1.502769,0 2.571405,-1.021884 2.571405,-2.4511845 0,-1.4359795 -1.068636,-2.4578627 -2.571405,-2.4578627 -1.50277,0 -2.571406,1.0285622 -2.571406,2.4578627 0,1.4226215 1.068636,2.4511845 2.571406,2.4511845 z m 0,-1.195537 c -0.707972,0 -1.235611,-0.5343183 -1.235611,-1.2556475 0,-0.7280082 0.527639,-1.2623266 1.235611,-1.2623266 0.71465,0 1.228931,0.5276394 1.228931,1.2623266 0,0.7280081 -0.514281,1.2556475 -1.228931,1.2556475 z"
     style="font-size:8.12502px;line-height:1.25;font-family:Mont;-inkscape-font-specification:Mont;fill:#2d3748;stroke-width:0.166975"
     id="path115" />
  <path
     d="m 26.712079,2.9910794 h -1.89015 v 4.6752828 h 1.89015 c 1.415943,0 2.41779,-0.9751305 2.41779,-2.3376414 0,-1.3691899 -1.001847,-2.3376414 -2.41779,-2.3376414 z m -0.06011,3.4997835 H 26.117647 V 4.1732585 h 0.534317 c 0.694614,0 1.155463,0.4608489 1.155463,1.1554623 0,0.6879344 -0.460849,1.1621421 -1.155463,1.1621421 z"
     style="font-size:8.12502px;line-height:1.25;font-family:Mont;-inkscape-font-specification:Mont;fill:#2d3748;stroke-width:0.166975"
     id="path117" />
  <path
     d="m 33.183989,2.9910794 h -3.833732 v 1.1621422 h 1.269006 v 3.5131406 h 1.29572 V 4.1532216 h 1.269006 z"
     style="font-size:8.12502px;line-height:1.25;font-family:Mont;-inkscape-font-specification:Mont;fill:#2d3748;stroke-width:0.166975"
     id="path119" />
  <path
     d="M 36.276341,7.6663622 H 37.71232 L 36.783943,5.9699025 c 0.460849,-0.2738381 0.741366,-0.748045 0.741366,-1.3224371 0,-0.9751305 -0.734687,-1.656386 -1.736533,-1.656386 h -2.030409 v 4.6752828 h 1.289042 V 6.2370617 h 0.467529 z M 35.047409,4.1398637 h 0.58775 c 0.360665,0 0.567713,0.2137266 0.567713,0.5076017 0,0.287196 -0.207048,0.5076025 -0.567713,0.5076025 h -0.58775 z"
     style="font-size:8.12502px;line-height:1.25;font-family:Mont;-inkscape-font-specification:Mont;fill:#2d3748;stroke-width:0.166975"
     id="path121" />
  <path
     style="font-size:8.12502px;line-height:1.25;font-family:Mont;-inkscape-font-specification:Mont;fill:#2d3748;stroke-width:0.166975"
     d="m 40.564231,6.5910473 c -0.707972,0 -1.235611,-0.5343183 -1.235611,-1.2556475 0,-0.7280082 0.527639,-1.2623266 1.235611,-1.2623266 0.71465,0 1.228931,0.5276394 1.228931,1.2623266 0,0.7280081 -0.514281,1.2556475 -1.228931,1.2556475 z"
     id="path372" />
  <path
     style="font-size:8.12502px;line-height:1.25;font-family:Mont;-inkscape-font-specification:Mont;fill:#2d3748;stroke-width:0.166975"
     d="m 40.564231,7.7865843 c 1.502769,0 2.571405,-1.021884 2.571405,-2.4511845 0,-1.4359795 -1.068636,-2.4578627 -2.571405,-2.4578627 -1.50277,0 -2.571406,1.0285622 -2.571406,2.4578627 0,1.4226215 1.068636,2.4511845 2.571406,2.4511845 z"
     id="path123" />
  <path
     d="M 46.715558,2.9910794 V 5.4489429 L 44.918914,2.9910794 h -1.128747 v 4.6752828 h 1.248969 V 5.135031 l 1.856754,2.5313312 h 1.068636 V 2.9910794 Z"
     style="font-size:8.12502px;line-height:1.25;font-family:Mont;-inkscape-font-specification:Mont;fill:#2d3748;stroke-width:0.166975"
     id="path125" />
  <circle
     style="fill:#ffffff;fill-opacity:1;stroke-width:5.22232;stroke-linecap:round;stroke-linejoin:round;paint-order:markers stroke fill"
     id="path13588-1"
     cx="40.564228"
     cy="5.3320599"
     r="1.3165079" />
  <circle
     style="fill:#1c30e3;fill-opacity:1;stroke-width:1.87987;stroke-linecap:round;stroke-linejoin:round;paint-order:markers stroke fill"
     id="circle694"
     cx="40.564228"
     cy="5.3320599"
     r="0.47390151" />
  <path
     style="fill:#1c30e3;fill-opacity:1;stroke-width:0.104965"
     d="m 3.0757786,10.503211 c -0.17945,-0.0973 -0.315866,-0.27618 -0.353274,-0.46321 -0.05415,-0.2707803 -0.123739,-0.3177403 -0.625066,-0.4218103 -0.31027,-0.0644 -0.788962,-0.26738 -1.063759,-0.45103 -0.44581803,-0.29794 -0.52940803,-0.4187 -0.77608003,-1.12115 -0.245658,-0.69956 -0.273663,-0.92168 -0.251444,-1.99434 0.0287,-1.38545 0.194901,-1.89318 0.861101,-2.63059 0.49791103,-0.55113 1.01178703,-0.88044 1.67414903,-1.07286 0.597867,-0.17368 0.706942,-0.43816 0.36171,-0.87705 -0.619577,-0.78767004 0.14957,-1.81170004 1.021927,-1.36059004 0.4955561,0.25626 0.6017121,0.87909 0.2303121,1.35125004 -0.2962351,0.3766 -0.2821801,0.81106 0.02624,0.81116 0.437546,1.6e-4 1.484818,0.58616 1.946953,1.08942 0.723685,0.78808 0.888356,1.27658 0.910573,2.70124 0.01668,1.06937 -0.01421,1.3143 -0.251517,1.99435 -0.240919,0.6904 -0.325211,0.8118 -0.770159,1.10916 -0.274798,0.18365 -0.753491,0.38662 -1.06376,0.45103 -0.501734,0.10416 -0.570885,0.15089 -0.625219,0.4225603 -0.03951,0.19753 -0.171763,0.36269 -0.3743021,0.46743 -0.383384,0.19825 -0.504901,0.19757 -0.878386,-0.005 z M 5.2678727,8.5611007 c 0.349634,-0.17493 0.534057,-0.34351 0.599392,-0.54789 0.12008,-0.37565 0.06819,-0.42159 -0.30656,-0.27145 -0.512246,0.20523 -2.9289521,0.24461 -3.7139741,0.0605 -0.374913,-0.0879 -0.696044,-0.14547 -0.713625,-0.12789 -0.101664,0.10166 0.148341,0.61939 0.368875,0.76389 0.788159,0.51642 2.8451501,0.58352 3.7658921,0.12283 z m 0.166806,-1.72072 c 0.270646,-0.0958 0.546967,-0.24035 0.614048,-0.32118 0.210574,-0.25373 0.147832,-1.35411 -0.107254,-1.88104 -0.283188,-0.58499 -1.007641,-1.23782 -1.555912,-1.40209 -0.5056271,-0.15148 -1.2047301,-0.15771 -1.7174991,-0.0153 -0.528516,0.1468 -1.387978,0.94434 -1.607569,1.49177 -0.20565903,0.51268 -0.23927403,1.58834 -0.05652,1.80855 0.11936,0.14382 0.826977,0.41014 1.366969,0.51448 0.551821,0.10663 2.5754041,-0.0223 3.0637361,-0.1952 z m -3.4835981,-0.23305 c -0.638969,-0.23358 -0.833171,-0.99162 -0.37215,-1.45264 0.469796,-0.4698 1.221306,-0.26545 1.454217,0.39543 0.117253,0.33271 -0.142673,0.82937 -0.51559,0.98518 -0.192392,0.0804 -0.363129,0.14243 -0.379416,0.13787 -0.01628,-0.005 -0.100464,-0.0342 -0.187061,-0.0658 z m 2.5595141,-0.0773 c -0.350051,-0.15144 -0.6055071,-0.65959 -0.492618,-0.97992 0.232911,-0.66088 0.984421,-0.86523 1.454217,-0.39543 0.6796,0.6796 -0.07501,1.7589 -0.961599,1.37535 z"
     id="path1010" />
</svg>
