<?xml version="1.0" encoding="UTF-8" standalone="no"?>
<!-- Created with Inkscape (http://www.inkscape.org/) -->

<svg
   width="7.0428948mm"
   height="10.655995mm"
   version="1.1"
   viewBox="0 0 7.0428948 10.655996"
   id="svg6"
   sodipodi:docname="comet-blue.svg"
   inkscape:version="1.1 (c68e22c387, 2021-05-23)"
   xmlns:inkscape="http://www.inkscape.org/namespaces/inkscape"
   xmlns:sodipodi="http://sodipodi.sourceforge.net/DTD/sodipodi-0.dtd"
   xmlns="http://www.w3.org/2000/svg"
   xmlns:svg="http://www.w3.org/2000/svg">
  <defs
     id="defs10" />
  <sodipodi:namedview
     id="namedview8"
     pagecolor="#ffffff"
     bordercolor="#666666"
     borderopacity="1.0"
     inkscape:pageshadow="2"
     inkscape:pageopacity="0.0"
     inkscape:pagecheckerboard="0"
     inkscape:document-units="mm"
     showgrid="false"
     inkscape:zoom="4.9787855"
     inkscape:cx="69.193581"
     inkscape:cy="46.698136"
     inkscape:window-width="2400"
     inkscape:window-height="1321"
     inkscape:window-x="-1"
     inkscape:window-y="-9"
     inkscape:window-maximized="1"
     inkscape:current-layer="svg6" />
  <path
     style="fill:#1c30e3;fill-opacity:1;stroke-width:0.104965"
     d="m 3.0757786,10.503211 c -0.17945,-0.0973 -0.315866,-0.27618 -0.353274,-0.46321 -0.05415,-0.2707803 -0.123739,-0.3177403 -0.625066,-0.4218103 -0.31027,-0.0644 -0.788962,-0.26738 -1.063759,-0.45103 -0.44581803,-0.29794 -0.52940803,-0.4187 -0.77608003,-1.12115 -0.245658,-0.69956 -0.273663,-0.92168 -0.251444,-1.99434 0.0287,-1.38545 0.194901,-1.89318 0.861101,-2.63059 0.49791103,-0.55113 1.01178703,-0.88044 1.67414903,-1.07286 0.597867,-0.17368 0.706942,-0.43816 0.36171,-0.87705 -0.619577,-0.78767004 0.14957,-1.81170004 1.021927,-1.36059004 0.495556,0.25626 0.601712,0.87909 0.230312,1.35125004 -0.296235,0.3766 -0.28218,0.81106 0.02624,0.81116 0.437546,1.6e-4 1.484818,0.58616 1.946954,1.08942 0.723685,0.78808 0.888356,1.27658 0.910573,2.70124 0.01668,1.06937 -0.01421,1.3143 -0.251517,1.99435 -0.24092,0.6904 -0.325212,0.8118 -0.77016,1.10916 -0.274798,0.18365 -0.753491,0.38662 -1.06376,0.45103 -0.501734,0.10416 -0.570885,0.15089 -0.625219,0.4225603 -0.03951,0.19753 -0.171763,0.36269 -0.374302,0.46743 -0.383384,0.19825 -0.504901,0.19757 -0.878386,-0.005 z m 2.192094,-1.9421103 c 0.349634,-0.17493 0.534057,-0.34351 0.599392,-0.54789 0.12008,-0.37565 0.06819,-0.42159 -0.30656,-0.27145 -0.512246,0.20523 -2.928952,0.24461 -3.713974,0.0605 -0.374913,-0.0879 -0.696044,-0.14547 -0.713625,-0.12789 -0.101664,0.10166 0.148341,0.61939 0.368875,0.76389 0.788159,0.51642 2.84515,0.58352 3.765892,0.12283 z m 0.166806,-1.72072 c 0.270646,-0.0958 0.546967,-0.24035 0.614048,-0.32118 0.210574,-0.25373 0.147832,-1.35411 -0.107254,-1.88104 -0.283188,-0.58499 -1.007641,-1.23782 -1.555912,-1.40209 -0.505627,-0.15148 -1.20473,-0.15771 -1.717499,-0.0153 -0.528516,0.1468 -1.387978,0.94434 -1.607569,1.49177 -0.20565903,0.51268 -0.23927403,1.58834 -0.05652,1.80855 0.11936,0.14382 0.826977,0.41014 1.366969,0.51448 0.551821,0.10663 2.575404,-0.0223 3.063736,-0.1952 z m -3.483598,-0.23305 c -0.638969,-0.23358 -0.833171,-0.99162 -0.37215,-1.45264 0.469796,-0.4698 1.221306,-0.26545 1.454217,0.39543 0.117253,0.33271 -0.142673,0.82937 -0.51559,0.98518 -0.192392,0.0804 -0.363129,0.14243 -0.379416,0.13787 -0.01628,-0.005 -0.100464,-0.0342 -0.187061,-0.0658 z m 2.559514,-0.0773 c -0.350051,-0.15144 -0.605507,-0.65959 -0.492618,-0.97992 0.232911,-0.66088 0.984421,-0.86523 1.454217,-0.39543 0.6796,0.6796 -0.07501,1.7589 -0.961599,1.37535 z"
     id="path1010" />
</svg>
