<?xml version="1.0" encoding="UTF-8" standalone="no"?>
<!-- Created with Inkscape (http://www.inkscape.org/) -->

<svg
   width="46.068752mm"
   height="5.9718895mm"
   version="1.1"
   viewBox="0 0 46.068751 5.9718896"
   id="svg6"
   sodipodi:docname="comet-text.svg"
   inkscape:version="1.1 (c68e22c387, 2021-05-23)"
   xmlns:inkscape="http://www.inkscape.org/namespaces/inkscape"
   xmlns:sodipodi="http://sodipodi.sourceforge.net/DTD/sodipodi-0.dtd"
   xmlns="http://www.w3.org/2000/svg"
   xmlns:svg="http://www.w3.org/2000/svg">
  <defs
     id="defs10" />
  <sodipodi:namedview
     id="namedview8"
     pagecolor="#ffffff"
     bordercolor="#666666"
     borderopacity="1.0"
     inkscape:pageshadow="2"
     inkscape:pageopacity="0.0"
     inkscape:pagecheckerboard="0"
     inkscape:document-units="mm"
     showgrid="false"
     inkscape:zoom="2.4893928"
     inkscape:cx="0.40170439"
     inkscape:cy="7.8332356"
     inkscape:window-width="2400"
     inkscape:window-height="1321"
     inkscape:window-x="-1"
     inkscape:window-y="-9"
     inkscape:window-maximized="1"
     inkscape:current-layer="svg6" />
  <path
     d="M 3.623759,1.5600037 V 0.13812523 H 2.8133392e-8 V 5.8256392 H 1.5843789 V 3.8350093 H 3.4125084 V 2.461881 H 1.5843789 V 1.5600037 Z"
     style="font-size:8.12502px;line-height:1.25;font-family:Mont;-inkscape-font-specification:Mont;fill:#2d3748;stroke-width:0.203126"
     id="path111" />
  <path
     d="m 7.23124,5.9718896 c 1.8281295,0 3.128133,-1.2431281 3.128133,-2.9818823 C 10.359373,1.243128 9.0593695,-1.1157989e-7 7.23124,-1.1157989e-7 5.4031105,-1.1157989e-7 4.1031073,1.251253 4.1031073,2.9900073 c 0,1.7306292 1.3000032,2.9818823 3.1281327,2.9818823 z m 0,-1.4543786 c -0.8612522,0 -1.5031287,-0.6500016 -1.5031287,-1.5275037 0,-0.8856272 0.6418765,-1.5356288 1.5031287,-1.5356288 0.8693771,0 1.4950037,0.6418766 1.4950037,1.5356288 0,0.8856271 -0.6256266,1.5275037 -1.4950037,1.5275037 z"
     style="font-size:8.12502px;line-height:1.25;font-family:Mont;-inkscape-font-specification:Mont;fill:#2d3748;stroke-width:0.203126"
     id="path113" />
  <path
     d="m 13.991247,5.9718896 c 1.828129,0 3.128133,-1.2431281 3.128133,-2.9818823 C 17.11938,1.243128 15.819376,-1.1157989e-7 13.991247,-1.1157989e-7 12.163117,-1.1157989e-7 10.863114,1.251253 10.863114,2.9900073 c 0,1.7306292 1.300003,2.9818823 3.128133,2.9818823 z m 0,-1.4543786 c -0.861252,0 -1.503129,-0.6500016 -1.503129,-1.5275037 0,-0.8856272 0.641877,-1.5356288 1.503129,-1.5356288 0.869377,0 1.495004,0.6418766 1.495004,1.5356288 0,0.8856271 -0.625627,1.5275037 -1.495004,1.5275037 z"
     style="font-size:8.12502px;line-height:1.25;font-family:Mont;-inkscape-font-specification:Mont;fill:#2d3748;stroke-width:0.203126"
     id="path115" />
  <path
     d="m 20.215003,0.13812523 h -2.29938 V 5.8256392 h 2.29938 c 1.722505,0 2.941258,-1.1862529 2.941258,-2.843757 0,-1.6656291 -1.218753,-2.84375697 -2.941258,-2.84375697 z M 20.141878,4.3956357 H 19.491877 V 1.5762538 h 0.650001 c 0.845002,0 1.405629,0.5606264 1.405629,1.4056284 0,0.8368771 -0.560627,1.4137535 -1.405629,1.4137535 z"
     style="font-size:8.12502px;line-height:1.25;font-family:Mont;-inkscape-font-specification:Mont;fill:#2d3748;stroke-width:0.203126"
     id="path117" />
  <path
     d="M 28.088126,0.13812523 H 23.424365 V 1.5518787 h 1.543754 v 4.2737605 h 1.576253 V 1.5518787 h 1.543754 z"
     style="font-size:8.12502px;line-height:1.25;font-family:Mont;-inkscape-font-specification:Mont;fill:#2d3748;stroke-width:0.203126"
     id="path119" />
  <path
     d="m 31.849994,5.8256392 h 1.746879 l -1.129377,-2.063755 c 0.560626,-0.3331259 0.901877,-0.9100023 0.901877,-1.608754 0,-1.18625293 -0.893752,-2.01500497 -2.112505,-2.01500497 H 28.786861 V 5.8256392 H 30.35499 V 4.086885 h 0.568752 z M 30.35499,1.5356287 h 0.715002 c 0.438751,0 0.690627,0.2600006 0.690627,0.6175015 0,0.3493759 -0.251876,0.6175015 -0.690627,0.6175015 H 30.35499 Z"
     style="font-size:8.12502px;line-height:1.25;font-family:Mont;-inkscape-font-specification:Mont;fill:#2d3748;stroke-width:0.203126"
     id="path121" />
  <path
     style="font-size:8.12502px;line-height:1.25;font-family:Mont;-inkscape-font-specification:Mont;fill:#2d3748;stroke-width:0.203126"
     d="m 37.066242,4.517511 c -0.861252,0 -1.503129,-0.6500016 -1.503129,-1.5275037 0,-0.8856272 0.641877,-1.5356288 1.503129,-1.5356288 0.869377,0 1.495004,0.6418766 1.495004,1.5356288 0,0.8856271 -0.625627,1.5275037 -1.495004,1.5275037 z"
     id="path372" />
  <path
     style="font-size:8.12502px;line-height:1.25;font-family:Mont;-inkscape-font-specification:Mont;fill:#2d3748;stroke-width:0.203126"
     d="m 37.066242,5.9718896 c 1.828129,0 3.128133,-1.2431281 3.128133,-2.9818823 0,-1.7468793 -1.300004,-2.99000741157989 -3.128133,-2.99000741157989 -1.82813,0 -3.128133,1.25125311157989 -3.128133,2.99000741157989 0,1.7306292 1.300003,2.9818823 3.128133,2.9818823 z"
     id="path123" />
  <path
     d="M 44.549375,0.13812523 V 3.1281326 L 42.363744,0.13812523 H 40.990616 V 5.8256392 h 1.519379 V 2.7462567 l 2.258755,3.0793825 h 1.300003 V 0.13812523 Z"
     style="font-size:8.12502px;line-height:1.25;font-family:Mont;-inkscape-font-specification:Mont;fill:#2d3748;stroke-width:0.203126"
     id="path125" />
  <circle
     style="fill:#ffffff;fill-opacity:1;stroke-width:6.35299;stroke-linecap:round;stroke-linejoin:round;paint-order:markers stroke fill"
     id="path13588"
     cx="37.066242"
     cy="2.9859447"
     r="1.601541" />
  <circle
     style="fill:#1c30e3;fill-opacity:1;stroke-width:2.28687;stroke-linecap:round;stroke-linejoin:round;paint-order:markers stroke fill"
     id="circle694"
     cx="37.066242"
     cy="2.9859447"
     r="0.57650447" />
</svg>
