<?xml version="1.0" encoding="UTF-8"?>
<!-- Created with Inkscape (http://www.inkscape.org/) -->
<svg width="10.583mm" height="10.655mm" version="1.1" viewBox="0 0 10.583 10.655" xmlns="http://www.w3.org/2000/svg">
 <g transform="translate(66.023 46.322)">
  <path d="m-63.152-35.674c-1.0075-0.07094-1.909-0.62537-2.4362-1.4982-0.23564-0.39013-0.37859-0.8251-0.42369-1.2892-0.01272-0.13093-0.01439-0.41644-0.0032-0.54606 0.05875-0.67972 0.33799-1.3147 0.8-1.8193 0.54728-0.5977 1.5486-1.3172 3.3276-2.391 0.58108-0.35074 1.4833-0.87116 2.0406-1.1771 0.35024-0.19226 1.3724-0.74618 1.3744-0.74479 0.0011 7.9e-4 -0.14872 0.28179-0.33297 0.62444-0.18425 0.34265-0.33382 0.62419-0.33237 0.62564 0.0014 0.0014 0.43258-0.28214 0.95807-0.6302 0.74408-0.49284 2.6749-1.7632 2.7337-1.7986 0.0092-0.0056 0.0091-0.0039-5.1e-4 0.0112-0.47747 0.74804-2.8802 4.5436-2.8778 4.546 0.0039 0.0039 0.28248-0.09434 0.7659-0.27023 0.25884-0.09418 0.47175-0.17031 0.47313-0.16919 0.0033 0.0027-0.67754 1.2319-0.84147 1.5191-0.97144 1.7017-1.9014 3.0784-2.6163 3.8728-0.12603 0.14005-0.30663 0.32044-0.40275 0.40226-0.6157 0.5241-1.4119 0.78846-2.2062 0.73252zm0.47781-0.8653c0.24983-0.03348 0.46157-0.09786 0.68617-0.20861 0.34361-0.16944 0.57624-0.36835 0.94092-0.80453 0.46206-0.55265 1.1142-1.495 1.7087-2.4689 0.1346-0.22051 0.33691-0.56806 0.33297-0.572-0.0019-0.0019-0.04651 0.01183-0.09913 0.03051s-0.36696 0.1306-0.69852 0.24871-0.60346 0.21389-0.6042 0.21285c-7.44e-4 -1e-3 0.13781-0.21853 0.3079-0.4833 0.33296-0.51829 1.7502-2.7647 1.7468-2.7686-0.0012-0.0013-0.32976 0.21519-0.73023 0.48108-1.9416 1.2892-2.488 1.651-2.4901 1.6488-0.0031-0.0031 0.79782-1.487 0.86096-1.5951 0.02744-0.047 0.04887-0.08648 0.04762-0.08773-0.0033-0.0033-0.5035 0.27563-0.6519 0.36348-0.87313 0.51692-1.8399 1.1537-2.4535 1.616-0.28482 0.2146-0.45822 0.3577-0.63727 0.52595-0.05007 0.04705-0.09394 0.08554-0.09749 0.08554-0.0036 0-0.0324 0.02829-0.0641 0.06287-0.33586 0.36637-0.53376 0.79131-0.58806 1.2627-0.01402 0.12174-0.01397 0.36066 1.09e-4 0.48103 0.07101 0.60704 0.39144 1.1577 0.89445 1.5372 0.34023 0.25669 0.71334 0.40116 1.1424 0.44237 0.09322 9e-3 0.34477 0.0031 0.44547-0.01044z" fill="#fff" stroke-width=".0071851"/>
 </g>
</svg>
