<?xml version="1.0" encoding="UTF-8"?>
<!-- Created with Inkscape (http://www.inkscape.org/) -->
<svg width="51.582mm" height="8.2021mm" version="1.1" viewBox="0 0 51.582 8.2021" xmlns="http://www.w3.org/2000/svg">
 <g transform="translate(-87.399 -139.98)">
  <g transform="matrix(2.2077 0 0 2.2077 -105.55 -191.93)" fill="#333" stroke-width=".26458" aria-label="Comet">
   <path d="m87.841 154.05q-0.24871 0.0106-0.37042-0.11642-0.11642-0.127-0.04233-0.37042l0.74083-2.6829q0.07937-0.22225 0.23812-0.34396 0.16404-0.127 0.40217-0.13229h3.6459l-0.21167 0.74612h-3.8523l1.27 0.16933-0.55033 1.9791h2.5506l-0.20637 0.75142z"/>
   <path d="m96.26 151.16q0.19579 0.0159 0.28046 0.14817 0.08467 0.127 0.05292 0.3122l-0.51329 1.8574q-0.10583 0.27517-0.28575 0.42334-0.17462 0.14816-0.48154 0.15875h-2.8522q-0.10054-5e-3 -0.16933-0.0476-0.0635-0.0423-0.10054-0.10583-0.03704-0.0635-0.04762-0.14288-0.0053-0.0847 0.0053-0.17462l0.55562-2.0214q0.08996-0.20108 0.23283-0.29104 0.14817-0.09 0.36512-0.11642zm-1.7462 2.1484 0.39158-1.397h-0.68262l-0.39158 1.397z"/>
   <path d="m96.392 154.05 0.80962-2.8998h5.7467q0.20637 0.0212 0.26987 0.15875 0.0635 0.13229 0.0476 0.3175l-0.67733 2.4236h-1.6087l0.59795-2.1484h-0.68262l-0.59796 2.1484h-1.6087l0.59796-2.1484h-0.68262l-0.59796 2.1484z"/>
   <path d="m105.85 151.91h-0.68263l-0.127 0.46566h0.67734zm-2.4342 2.1484q-0.18521-0.0106-0.27517-0.13759-0.0847-0.127-0.0582-0.30162l0.56621-2.0426q0.09-0.22225 0.26987-0.3175 0.17992-0.10054 0.40217-0.10054h3.3496l-0.21166 0.75671-0.26458 0.97895h-2.3019l-0.11113 0.41275h2.2913l-0.20638 0.75142z"/>
   <path d="m109.36 153.29h1.4076l-0.21696 0.76729h-2.2966q-0.13758 0-0.25399-5e-3 -0.11642-5e-3 -0.20109-0.0476-0.0794-0.0423-0.11641-0.13758-0.037-0.10055-0.0212-0.28575l0.45508-1.6722h-0.37041l0.20108-0.75142h0.381l0.22754-0.81491h1.6087l-0.22754 0.81491 0.59266-5e-3 -0.20108 0.75671h-0.59796z"/>
  </g>
 </g>
</svg>
